<mxfile host="app.diagrams.net" modified="2022-03-26T08:03:14.023Z" agent="5.0 (Macintosh; Intel Mac OS X 10_15_7) AppleWebKit/605.1.15 (KHTML, like Gecko) Version/15.4 Safari/605.1.15" etag="sZkKysObotyOiXCB-PQR" version="17.2.4" type="github">
  <diagram name="Page-1" id="6133507b-19e7-1e82-6fc7-422aa6c4b21f">
    <mxGraphModel dx="1298" dy="842" grid="1" gridSize="10" guides="1" tooltips="1" connect="1" arrows="1" fold="1" page="1" pageScale="1" pageWidth="1100" pageHeight="850" background="none" math="0" shadow="0">
      <root>
        <mxCell id="0" />
        <mxCell id="1" parent="0" />
        <mxCell id="tey2QPXhFQJ5Nbo1Uw9D-1" value="Main" style="rounded=0;whiteSpace=wrap;html=1;" vertex="1" parent="1">
          <mxGeometry x="490" y="80" width="60" height="20" as="geometry" />
        </mxCell>
        <mxCell id="tey2QPXhFQJ5Nbo1Uw9D-15" style="edgeStyle=orthogonalEdgeStyle;rounded=0;orthogonalLoop=1;jettySize=auto;html=1;" edge="1" parent="1" source="tey2QPXhFQJ5Nbo1Uw9D-2" target="tey2QPXhFQJ5Nbo1Uw9D-1">
          <mxGeometry relative="1" as="geometry" />
        </mxCell>
        <mxCell id="tey2QPXhFQJ5Nbo1Uw9D-2" value="User Commands" style="rounded=0;whiteSpace=wrap;html=1;" vertex="1" parent="1">
          <mxGeometry x="410" y="150" width="90" height="30" as="geometry" />
        </mxCell>
        <mxCell id="tey2QPXhFQJ5Nbo1Uw9D-3" value="Buttons" style="rounded=0;whiteSpace=wrap;html=1;" vertex="1" parent="1">
          <mxGeometry x="410" y="200" width="90" height="30" as="geometry" />
        </mxCell>
        <mxCell id="tey2QPXhFQJ5Nbo1Uw9D-16" value="" style="edgeStyle=orthogonalEdgeStyle;rounded=0;orthogonalLoop=1;jettySize=auto;html=1;" edge="1" parent="1" source="tey2QPXhFQJ5Nbo1Uw9D-4" target="tey2QPXhFQJ5Nbo1Uw9D-1">
          <mxGeometry relative="1" as="geometry" />
        </mxCell>
        <mxCell id="tey2QPXhFQJ5Nbo1Uw9D-4" value="Positional &amp;nbsp;Interface" style="rounded=0;whiteSpace=wrap;html=1;" vertex="1" parent="1">
          <mxGeometry x="530" y="150" width="90" height="30" as="geometry" />
        </mxCell>
        <mxCell id="tey2QPXhFQJ5Nbo1Uw9D-5" value="Senosrs" style="rounded=0;whiteSpace=wrap;html=1;" vertex="1" parent="1">
          <mxGeometry x="530" y="200" width="90" height="30" as="geometry" />
        </mxCell>
        <mxCell id="tey2QPXhFQJ5Nbo1Uw9D-17" style="edgeStyle=orthogonalEdgeStyle;rounded=0;orthogonalLoop=1;jettySize=auto;html=1;entryX=0.5;entryY=1;entryDx=0;entryDy=0;" edge="1" parent="1" source="tey2QPXhFQJ5Nbo1Uw9D-6" target="tey2QPXhFQJ5Nbo1Uw9D-1">
          <mxGeometry relative="1" as="geometry">
            <Array as="points">
              <mxPoint x="695" y="120" />
              <mxPoint x="520" y="120" />
            </Array>
          </mxGeometry>
        </mxCell>
        <mxCell id="tey2QPXhFQJ5Nbo1Uw9D-6" value="Display" style="rounded=0;whiteSpace=wrap;html=1;" vertex="1" parent="1">
          <mxGeometry x="650" y="150" width="90" height="30" as="geometry" />
        </mxCell>
        <mxCell id="tey2QPXhFQJ5Nbo1Uw9D-7" value="Rendering" style="rounded=0;whiteSpace=wrap;html=1;" vertex="1" parent="1">
          <mxGeometry x="650" y="200" width="90" height="30" as="geometry" />
        </mxCell>
        <mxCell id="tey2QPXhFQJ5Nbo1Uw9D-8" value="Test/Fonts" style="rounded=0;whiteSpace=wrap;html=1;" vertex="1" parent="1">
          <mxGeometry x="650" y="250" width="90" height="30" as="geometry" />
        </mxCell>
        <mxCell id="tey2QPXhFQJ5Nbo1Uw9D-9" value="Flash" style="rounded=0;whiteSpace=wrap;html=1;" vertex="1" parent="1">
          <mxGeometry x="650" y="310" width="90" height="30" as="geometry" />
        </mxCell>
        <mxCell id="tey2QPXhFQJ5Nbo1Uw9D-10" value="SPI" style="rounded=0;whiteSpace=wrap;html=1;" vertex="1" parent="1">
          <mxGeometry x="650" y="370" width="90" height="30" as="geometry" />
        </mxCell>
        <mxCell id="tey2QPXhFQJ5Nbo1Uw9D-29" value="" style="edgeStyle=orthogonalEdgeStyle;rounded=0;orthogonalLoop=1;jettySize=auto;html=1;entryX=0.5;entryY=1;entryDx=0;entryDy=0;" edge="1" parent="1" source="tey2QPXhFQJ5Nbo1Uw9D-11" target="tey2QPXhFQJ5Nbo1Uw9D-7">
          <mxGeometry relative="1" as="geometry">
            <mxPoint x="815" y="170" as="targetPoint" />
            <Array as="points">
              <mxPoint x="810" y="230" />
            </Array>
          </mxGeometry>
        </mxCell>
        <mxCell id="tey2QPXhFQJ5Nbo1Uw9D-11" value="LCD" style="rounded=0;whiteSpace=wrap;html=1;" vertex="1" parent="1">
          <mxGeometry x="770" y="250" width="90" height="30" as="geometry" />
        </mxCell>
        <mxCell id="tey2QPXhFQJ5Nbo1Uw9D-12" value="Parallel&amp;nbsp;&lt;br&gt;Interface" style="rounded=0;whiteSpace=wrap;html=1;" vertex="1" parent="1">
          <mxGeometry x="770" y="300" width="90" height="30" as="geometry" />
        </mxCell>
        <mxCell id="tey2QPXhFQJ5Nbo1Uw9D-14" style="edgeStyle=orthogonalEdgeStyle;rounded=0;orthogonalLoop=1;jettySize=auto;html=1;entryX=0;entryY=0.5;entryDx=0;entryDy=0;" edge="1" parent="1" source="tey2QPXhFQJ5Nbo1Uw9D-13" target="tey2QPXhFQJ5Nbo1Uw9D-1">
          <mxGeometry relative="1" as="geometry">
            <Array as="points">
              <mxPoint x="345" y="90" />
            </Array>
          </mxGeometry>
        </mxCell>
        <mxCell id="tey2QPXhFQJ5Nbo1Uw9D-13" value="Logging" style="rounded=0;whiteSpace=wrap;html=1;" vertex="1" parent="1">
          <mxGeometry x="300" y="150" width="90" height="30" as="geometry" />
        </mxCell>
        <mxCell id="tey2QPXhFQJ5Nbo1Uw9D-18" value="" style="endArrow=none;html=1;rounded=0;entryX=0.5;entryY=0;entryDx=0;entryDy=0;exitX=0.5;exitY=1;exitDx=0;exitDy=0;" edge="1" parent="1" source="tey2QPXhFQJ5Nbo1Uw9D-2" target="tey2QPXhFQJ5Nbo1Uw9D-3">
          <mxGeometry width="50" height="50" relative="1" as="geometry">
            <mxPoint x="290" y="410" as="sourcePoint" />
            <mxPoint x="340" y="360" as="targetPoint" />
          </mxGeometry>
        </mxCell>
        <mxCell id="tey2QPXhFQJ5Nbo1Uw9D-19" value="" style="endArrow=none;html=1;rounded=0;entryX=0.5;entryY=0;entryDx=0;entryDy=0;exitX=0.5;exitY=1;exitDx=0;exitDy=0;" edge="1" parent="1" source="tey2QPXhFQJ5Nbo1Uw9D-4" target="tey2QPXhFQJ5Nbo1Uw9D-5">
          <mxGeometry width="50" height="50" relative="1" as="geometry">
            <mxPoint x="465" y="190" as="sourcePoint" />
            <mxPoint x="465" y="210" as="targetPoint" />
          </mxGeometry>
        </mxCell>
        <mxCell id="tey2QPXhFQJ5Nbo1Uw9D-20" value="" style="endArrow=none;html=1;rounded=0;entryX=0.5;entryY=0;entryDx=0;entryDy=0;exitX=0.5;exitY=1;exitDx=0;exitDy=0;" edge="1" parent="1" source="tey2QPXhFQJ5Nbo1Uw9D-6" target="tey2QPXhFQJ5Nbo1Uw9D-7">
          <mxGeometry width="50" height="50" relative="1" as="geometry">
            <mxPoint x="585" y="190" as="sourcePoint" />
            <mxPoint x="585" y="210" as="targetPoint" />
          </mxGeometry>
        </mxCell>
        <mxCell id="tey2QPXhFQJ5Nbo1Uw9D-21" value="" style="endArrow=none;html=1;rounded=0;entryX=0.5;entryY=0;entryDx=0;entryDy=0;exitX=0.5;exitY=1;exitDx=0;exitDy=0;" edge="1" parent="1" source="tey2QPXhFQJ5Nbo1Uw9D-7" target="tey2QPXhFQJ5Nbo1Uw9D-8">
          <mxGeometry width="50" height="50" relative="1" as="geometry">
            <mxPoint x="595" y="200" as="sourcePoint" />
            <mxPoint x="595" y="220" as="targetPoint" />
          </mxGeometry>
        </mxCell>
        <mxCell id="tey2QPXhFQJ5Nbo1Uw9D-22" value="" style="endArrow=none;html=1;rounded=0;entryX=0.5;entryY=1;entryDx=0;entryDy=0;exitX=0.5;exitY=0;exitDx=0;exitDy=0;" edge="1" parent="1" source="tey2QPXhFQJ5Nbo1Uw9D-9" target="tey2QPXhFQJ5Nbo1Uw9D-8">
          <mxGeometry width="50" height="50" relative="1" as="geometry">
            <mxPoint x="605" y="210" as="sourcePoint" />
            <mxPoint x="605" y="230" as="targetPoint" />
          </mxGeometry>
        </mxCell>
        <mxCell id="tey2QPXhFQJ5Nbo1Uw9D-23" value="" style="endArrow=none;html=1;rounded=0;entryX=0.5;entryY=0;entryDx=0;entryDy=0;exitX=0.5;exitY=1;exitDx=0;exitDy=0;" edge="1" parent="1" source="tey2QPXhFQJ5Nbo1Uw9D-9" target="tey2QPXhFQJ5Nbo1Uw9D-10">
          <mxGeometry width="50" height="50" relative="1" as="geometry">
            <mxPoint x="615" y="220" as="sourcePoint" />
            <mxPoint x="615" y="240" as="targetPoint" />
          </mxGeometry>
        </mxCell>
        <mxCell id="tey2QPXhFQJ5Nbo1Uw9D-26" value="" style="endArrow=none;html=1;rounded=0;entryX=0.5;entryY=0;entryDx=0;entryDy=0;exitX=0.5;exitY=1;exitDx=0;exitDy=0;" edge="1" parent="1" source="tey2QPXhFQJ5Nbo1Uw9D-11" target="tey2QPXhFQJ5Nbo1Uw9D-12">
          <mxGeometry width="50" height="50" relative="1" as="geometry">
            <mxPoint x="625" y="280" as="sourcePoint" />
            <mxPoint x="625" y="300" as="targetPoint" />
          </mxGeometry>
        </mxCell>
      </root>
    </mxGraphModel>
  </diagram>
</mxfile>
